<mxfile host="Electron" agent="Mozilla/5.0 (Windows NT 10.0; Win64; x64) AppleWebKit/537.36 (KHTML, like Gecko) draw.io/28.1.2 Chrome/138.0.7204.243 Electron/37.4.0 Safari/537.36" version="28.1.2" pages="4">
  <diagram name="第 1 页" id="A0ExX7L5BrR0_4YwtHFF">
    <mxGraphModel dx="1410" dy="825" grid="1" gridSize="10" guides="1" tooltips="1" connect="1" arrows="1" fold="1" page="1" pageScale="1" pageWidth="827" pageHeight="1169" math="0" shadow="0">
      <root>
        <mxCell id="0" />
        <mxCell id="1" parent="0" />
        <mxCell id="M5NO9CrCRK0eekIe_w3R-10" style="edgeStyle=orthogonalEdgeStyle;rounded=0;orthogonalLoop=1;jettySize=auto;html=1;exitX=0.5;exitY=1;exitDx=0;exitDy=0;fontSize=18;" edge="1" parent="1" source="M5NO9CrCRK0eekIe_w3R-1" target="M5NO9CrCRK0eekIe_w3R-3">
          <mxGeometry relative="1" as="geometry" />
        </mxCell>
        <mxCell id="M5NO9CrCRK0eekIe_w3R-1" value="取下一个品种" style="rounded=1;whiteSpace=wrap;html=1;fontSize=18;" vertex="1" parent="1">
          <mxGeometry x="294" y="210" width="120" height="60" as="geometry" />
        </mxCell>
        <mxCell id="M5NO9CrCRK0eekIe_w3R-11" style="edgeStyle=orthogonalEdgeStyle;rounded=0;orthogonalLoop=1;jettySize=auto;html=1;exitX=0.5;exitY=1;exitDx=0;exitDy=0;fontSize=18;" edge="1" parent="1" source="M5NO9CrCRK0eekIe_w3R-3" target="M5NO9CrCRK0eekIe_w3R-4">
          <mxGeometry relative="1" as="geometry" />
        </mxCell>
        <mxCell id="M5NO9CrCRK0eekIe_w3R-3" value="针对这个品种写算法" style="rounded=1;whiteSpace=wrap;html=1;fontSize=18;" vertex="1" parent="1">
          <mxGeometry x="294" y="310" width="120" height="60" as="geometry" />
        </mxCell>
        <mxCell id="M5NO9CrCRK0eekIe_w3R-5" style="edgeStyle=orthogonalEdgeStyle;rounded=0;orthogonalLoop=1;jettySize=auto;html=1;exitX=1;exitY=0.5;exitDx=0;exitDy=0;entryX=0.5;entryY=0;entryDx=0;entryDy=0;fontSize=18;" edge="1" parent="1" source="M5NO9CrCRK0eekIe_w3R-4" target="M5NO9CrCRK0eekIe_w3R-1">
          <mxGeometry relative="1" as="geometry">
            <Array as="points">
              <mxPoint x="450" y="450" />
              <mxPoint x="450" y="190" />
              <mxPoint x="354" y="190" />
            </Array>
          </mxGeometry>
        </mxCell>
        <mxCell id="M5NO9CrCRK0eekIe_w3R-12" style="edgeStyle=orthogonalEdgeStyle;rounded=0;orthogonalLoop=1;jettySize=auto;html=1;exitX=0.5;exitY=1;exitDx=0;exitDy=0;fontSize=18;" edge="1" parent="1" source="M5NO9CrCRK0eekIe_w3R-4" target="M5NO9CrCRK0eekIe_w3R-6">
          <mxGeometry relative="1" as="geometry" />
        </mxCell>
        <mxCell id="M5NO9CrCRK0eekIe_w3R-4" value="是否取完" style="rhombus;whiteSpace=wrap;html=1;fontSize=18;" vertex="1" parent="1">
          <mxGeometry x="313" y="410" width="80" height="80" as="geometry" />
        </mxCell>
        <mxCell id="M5NO9CrCRK0eekIe_w3R-13" style="edgeStyle=orthogonalEdgeStyle;rounded=0;orthogonalLoop=1;jettySize=auto;html=1;exitX=0.5;exitY=1;exitDx=0;exitDy=0;fontSize=18;" edge="1" parent="1" source="M5NO9CrCRK0eekIe_w3R-6" target="M5NO9CrCRK0eekIe_w3R-8">
          <mxGeometry relative="1" as="geometry" />
        </mxCell>
        <mxCell id="M5NO9CrCRK0eekIe_w3R-6" value="组合净值" style="rounded=1;whiteSpace=wrap;html=1;fontSize=18;" vertex="1" parent="1">
          <mxGeometry x="293" y="525" width="120" height="60" as="geometry" />
        </mxCell>
        <mxCell id="M5NO9CrCRK0eekIe_w3R-9" style="edgeStyle=orthogonalEdgeStyle;rounded=0;orthogonalLoop=1;jettySize=auto;html=1;exitX=0.5;exitY=1;exitDx=0;exitDy=0;fontSize=18;" edge="1" parent="1" source="M5NO9CrCRK0eekIe_w3R-7" target="M5NO9CrCRK0eekIe_w3R-1">
          <mxGeometry relative="1" as="geometry" />
        </mxCell>
        <mxCell id="M5NO9CrCRK0eekIe_w3R-7" value="开始" style="shape=hexagon;perimeter=hexagonPerimeter2;whiteSpace=wrap;html=1;fixedSize=1;fontSize=18;" vertex="1" parent="1">
          <mxGeometry x="293" y="90" width="120" height="80" as="geometry" />
        </mxCell>
        <mxCell id="M5NO9CrCRK0eekIe_w3R-8" value="结束" style="shape=hexagon;perimeter=hexagonPerimeter2;whiteSpace=wrap;html=1;fixedSize=1;fontSize=18;" vertex="1" parent="1">
          <mxGeometry x="293" y="620" width="120" height="80" as="geometry" />
        </mxCell>
        <mxCell id="M5NO9CrCRK0eekIe_w3R-14" value="是" style="text;html=1;align=center;verticalAlign=middle;whiteSpace=wrap;rounded=0;fontSize=18;" vertex="1" parent="1">
          <mxGeometry x="340" y="480" width="60" height="30" as="geometry" />
        </mxCell>
        <mxCell id="M5NO9CrCRK0eekIe_w3R-15" value="否" style="text;html=1;align=center;verticalAlign=middle;whiteSpace=wrap;rounded=0;fontSize=18;" vertex="1" parent="1">
          <mxGeometry x="370" y="420" width="60" height="30" as="geometry" />
        </mxCell>
        <mxCell id="M5NO9CrCRK0eekIe_w3R-16" value="main_backtest_multiple" style="text;html=1;align=center;verticalAlign=middle;whiteSpace=wrap;rounded=0;fontSize=18;" vertex="1" parent="1">
          <mxGeometry x="284" y="30" width="140" height="50" as="geometry" />
        </mxCell>
      </root>
    </mxGraphModel>
  </diagram>
  <diagram id="9d5vRkf9LS8c9YDRIss5" name="第 2 页">
    <mxGraphModel dx="1410" dy="825" grid="1" gridSize="10" guides="1" tooltips="1" connect="1" arrows="1" fold="1" page="1" pageScale="1" pageWidth="827" pageHeight="1169" math="0" shadow="0">
      <root>
        <mxCell id="0" />
        <mxCell id="1" parent="0" />
        <mxCell id="KlNSlDLTa9ff_pkzWU7G-1" style="edgeStyle=orthogonalEdgeStyle;rounded=0;orthogonalLoop=1;jettySize=auto;html=1;exitX=0.5;exitY=1;exitDx=0;exitDy=0;fontSize=18;" edge="1" parent="1" source="KlNSlDLTa9ff_pkzWU7G-2" target="KlNSlDLTa9ff_pkzWU7G-4">
          <mxGeometry relative="1" as="geometry" />
        </mxCell>
        <mxCell id="KlNSlDLTa9ff_pkzWU7G-2" value="读取csv文件" style="rounded=1;whiteSpace=wrap;html=1;fontSize=18;" vertex="1" parent="1">
          <mxGeometry x="270" y="230" width="120" height="60" as="geometry" />
        </mxCell>
        <mxCell id="KlNSlDLTa9ff_pkzWU7G-17" style="edgeStyle=orthogonalEdgeStyle;rounded=0;orthogonalLoop=1;jettySize=auto;html=1;exitX=0.5;exitY=1;exitDx=0;exitDy=0;" edge="1" parent="1" source="KlNSlDLTa9ff_pkzWU7G-4" target="KlNSlDLTa9ff_pkzWU7G-16">
          <mxGeometry relative="1" as="geometry" />
        </mxCell>
        <mxCell id="KlNSlDLTa9ff_pkzWU7G-4" value="存入数据库" style="rounded=1;whiteSpace=wrap;html=1;fontSize=18;" vertex="1" parent="1">
          <mxGeometry x="270" y="330" width="120" height="60" as="geometry" />
        </mxCell>
        <mxCell id="KlNSlDLTa9ff_pkzWU7G-8" style="edgeStyle=orthogonalEdgeStyle;rounded=0;orthogonalLoop=1;jettySize=auto;html=1;exitX=0.5;exitY=1;exitDx=0;exitDy=0;fontSize=18;" edge="1" parent="1" source="KlNSlDLTa9ff_pkzWU7G-9" target="KlNSlDLTa9ff_pkzWU7G-12">
          <mxGeometry relative="1" as="geometry" />
        </mxCell>
        <mxCell id="KlNSlDLTa9ff_pkzWU7G-9" value="运行run_backtest_and_output" style="rounded=1;whiteSpace=wrap;html=1;fontSize=18;" vertex="1" parent="1">
          <mxGeometry x="270" y="524.5" width="120" height="60" as="geometry" />
        </mxCell>
        <mxCell id="KlNSlDLTa9ff_pkzWU7G-10" style="edgeStyle=orthogonalEdgeStyle;rounded=0;orthogonalLoop=1;jettySize=auto;html=1;exitX=0.5;exitY=1;exitDx=0;exitDy=0;fontSize=18;" edge="1" parent="1" source="KlNSlDLTa9ff_pkzWU7G-11" target="KlNSlDLTa9ff_pkzWU7G-2">
          <mxGeometry relative="1" as="geometry" />
        </mxCell>
        <mxCell id="KlNSlDLTa9ff_pkzWU7G-11" value="开始" style="shape=hexagon;perimeter=hexagonPerimeter2;whiteSpace=wrap;html=1;fixedSize=1;fontSize=18;" vertex="1" parent="1">
          <mxGeometry x="270" y="120" width="120" height="80" as="geometry" />
        </mxCell>
        <mxCell id="KlNSlDLTa9ff_pkzWU7G-12" value="结束" style="shape=hexagon;perimeter=hexagonPerimeter2;whiteSpace=wrap;html=1;fixedSize=1;fontSize=18;" vertex="1" parent="1">
          <mxGeometry x="270" y="620" width="120" height="80" as="geometry" />
        </mxCell>
        <mxCell id="KlNSlDLTa9ff_pkzWU7G-15" value="run_one_symbol" style="text;html=1;align=center;verticalAlign=middle;whiteSpace=wrap;rounded=0;fontSize=18;" vertex="1" parent="1">
          <mxGeometry x="260" y="60" width="140" height="50" as="geometry" />
        </mxCell>
        <mxCell id="KlNSlDLTa9ff_pkzWU7G-18" style="edgeStyle=orthogonalEdgeStyle;rounded=0;orthogonalLoop=1;jettySize=auto;html=1;exitX=0.5;exitY=1;exitDx=0;exitDy=0;" edge="1" parent="1" source="KlNSlDLTa9ff_pkzWU7G-16" target="KlNSlDLTa9ff_pkzWU7G-9">
          <mxGeometry relative="1" as="geometry" />
        </mxCell>
        <mxCell id="KlNSlDLTa9ff_pkzWU7G-16" value="调用算法" style="rounded=1;whiteSpace=wrap;html=1;fontSize=18;" vertex="1" parent="1">
          <mxGeometry x="270" y="430" width="120" height="60" as="geometry" />
        </mxCell>
      </root>
    </mxGraphModel>
  </diagram>
  <diagram id="XEgc3jhZVs883fVD35Jy" name="第 3 页">
    <mxGraphModel dx="1410" dy="825" grid="1" gridSize="10" guides="1" tooltips="1" connect="1" arrows="1" fold="1" page="1" pageScale="1" pageWidth="827" pageHeight="1169" math="0" shadow="0">
      <root>
        <mxCell id="0" />
        <mxCell id="1" parent="0" />
        <mxCell id="WVc4HhM1eSterOjD9CDU-1" style="edgeStyle=orthogonalEdgeStyle;rounded=0;orthogonalLoop=1;jettySize=auto;html=1;exitX=0.5;exitY=1;exitDx=0;exitDy=0;fontSize=18;" edge="1" parent="1" source="WVc4HhM1eSterOjD9CDU-2" target="WVc4HhM1eSterOjD9CDU-4">
          <mxGeometry relative="1" as="geometry" />
        </mxCell>
        <mxCell id="WVc4HhM1eSterOjD9CDU-2" value="设置品种参数" style="rounded=1;whiteSpace=wrap;html=1;fontSize=18;" vertex="1" parent="1">
          <mxGeometry x="190" y="210" width="120" height="60" as="geometry" />
        </mxCell>
        <mxCell id="WVc4HhM1eSterOjD9CDU-3" style="edgeStyle=orthogonalEdgeStyle;rounded=0;orthogonalLoop=1;jettySize=auto;html=1;exitX=0.5;exitY=1;exitDx=0;exitDy=0;" edge="1" parent="1" source="WVc4HhM1eSterOjD9CDU-4" target="WVc4HhM1eSterOjD9CDU-12">
          <mxGeometry relative="1" as="geometry" />
        </mxCell>
        <mxCell id="WVc4HhM1eSterOjD9CDU-4" value="设置策略类" style="rounded=1;whiteSpace=wrap;html=1;fontSize=18;" vertex="1" parent="1">
          <mxGeometry x="190" y="310" width="120" height="60" as="geometry" />
        </mxCell>
        <mxCell id="WVc4HhM1eSterOjD9CDU-5" style="edgeStyle=orthogonalEdgeStyle;rounded=0;orthogonalLoop=1;jettySize=auto;html=1;exitX=0.5;exitY=1;exitDx=0;exitDy=0;fontSize=18;" edge="1" parent="1" source="WVc4HhM1eSterOjD9CDU-6" target="WVc4HhM1eSterOjD9CDU-9">
          <mxGeometry relative="1" as="geometry" />
        </mxCell>
        <mxCell id="WVc4HhM1eSterOjD9CDU-6" value="开始回测" style="rounded=1;whiteSpace=wrap;html=1;fontSize=18;" vertex="1" parent="1">
          <mxGeometry x="190" y="504.5" width="120" height="60" as="geometry" />
        </mxCell>
        <mxCell id="WVc4HhM1eSterOjD9CDU-7" style="edgeStyle=orthogonalEdgeStyle;rounded=0;orthogonalLoop=1;jettySize=auto;html=1;exitX=0.5;exitY=1;exitDx=0;exitDy=0;fontSize=18;" edge="1" parent="1" source="WVc4HhM1eSterOjD9CDU-8" target="WVc4HhM1eSterOjD9CDU-2">
          <mxGeometry relative="1" as="geometry" />
        </mxCell>
        <mxCell id="WVc4HhM1eSterOjD9CDU-8" value="开始" style="shape=hexagon;perimeter=hexagonPerimeter2;whiteSpace=wrap;html=1;fixedSize=1;fontSize=18;" vertex="1" parent="1">
          <mxGeometry x="190" y="100" width="120" height="80" as="geometry" />
        </mxCell>
        <mxCell id="WVc4HhM1eSterOjD9CDU-9" value="结束" style="shape=hexagon;perimeter=hexagonPerimeter2;whiteSpace=wrap;html=1;fixedSize=1;fontSize=18;" vertex="1" parent="1">
          <mxGeometry x="190" y="600" width="120" height="80" as="geometry" />
        </mxCell>
        <mxCell id="WVc4HhM1eSterOjD9CDU-10" value="run_backtest_and_output" style="text;html=1;align=center;verticalAlign=middle;whiteSpace=wrap;rounded=0;fontSize=18;" vertex="1" parent="1">
          <mxGeometry x="180" y="40" width="140" height="50" as="geometry" />
        </mxCell>
        <mxCell id="WVc4HhM1eSterOjD9CDU-11" style="edgeStyle=orthogonalEdgeStyle;rounded=0;orthogonalLoop=1;jettySize=auto;html=1;exitX=0.5;exitY=1;exitDx=0;exitDy=0;" edge="1" parent="1" source="WVc4HhM1eSterOjD9CDU-12" target="WVc4HhM1eSterOjD9CDU-6">
          <mxGeometry relative="1" as="geometry" />
        </mxCell>
        <mxCell id="WVc4HhM1eSterOjD9CDU-12" value="从数据库中加载数据" style="rounded=1;whiteSpace=wrap;html=1;fontSize=18;" vertex="1" parent="1">
          <mxGeometry x="190" y="410" width="120" height="60" as="geometry" />
        </mxCell>
      </root>
    </mxGraphModel>
  </diagram>
  <diagram id="lJVOE70_hrtA2zp7wT98" name="第 4 页">
    <mxGraphModel dx="1410" dy="825" grid="1" gridSize="10" guides="1" tooltips="1" connect="1" arrows="1" fold="1" page="1" pageScale="1" pageWidth="827" pageHeight="1169" math="0" shadow="0">
      <root>
        <mxCell id="0" />
        <mxCell id="1" parent="0" />
        <mxCell id="2dIY2J-MviKNpFSsQXsN-1" style="edgeStyle=orthogonalEdgeStyle;rounded=0;orthogonalLoop=1;jettySize=auto;html=1;exitX=0.5;exitY=1;exitDx=0;exitDy=0;fontSize=18;" edge="1" parent="1" source="2dIY2J-MviKNpFSsQXsN-2" target="2dIY2J-MviKNpFSsQXsN-4">
          <mxGeometry relative="1" as="geometry" />
        </mxCell>
        <mxCell id="2dIY2J-MviKNpFSsQXsN-2" value="初始化on_init" style="rounded=1;whiteSpace=wrap;html=1;fontSize=18;" vertex="1" parent="1">
          <mxGeometry x="120" y="240" width="120" height="60" as="geometry" />
        </mxCell>
        <mxCell id="2dIY2J-MviKNpFSsQXsN-19" style="edgeStyle=orthogonalEdgeStyle;rounded=0;orthogonalLoop=1;jettySize=auto;html=1;exitX=0.5;exitY=1;exitDx=0;exitDy=0;" edge="1" parent="1" source="2dIY2J-MviKNpFSsQXsN-4" target="2dIY2J-MviKNpFSsQXsN-14">
          <mxGeometry relative="1" as="geometry" />
        </mxCell>
        <mxCell id="2dIY2J-MviKNpFSsQXsN-4" value="初始化on_start" style="rounded=1;whiteSpace=wrap;html=1;fontSize=18;" vertex="1" parent="1">
          <mxGeometry x="120" y="330" width="120" height="60" as="geometry" />
        </mxCell>
        <mxCell id="2dIY2J-MviKNpFSsQXsN-17" style="edgeStyle=orthogonalEdgeStyle;rounded=0;orthogonalLoop=1;jettySize=auto;html=1;exitX=0;exitY=0.5;exitDx=0;exitDy=0;entryX=0.5;entryY=0;entryDx=0;entryDy=0;" edge="1" parent="1" source="2dIY2J-MviKNpFSsQXsN-6" target="2dIY2J-MviKNpFSsQXsN-14">
          <mxGeometry relative="1" as="geometry" />
        </mxCell>
        <mxCell id="2dIY2J-MviKNpFSsQXsN-6" value="调用new_bar(针对bar型数据）" style="rounded=1;whiteSpace=wrap;html=1;fontSize=18;" vertex="1" parent="1">
          <mxGeometry x="310" y="400" width="120" height="60" as="geometry" />
        </mxCell>
        <mxCell id="2dIY2J-MviKNpFSsQXsN-7" style="edgeStyle=orthogonalEdgeStyle;rounded=0;orthogonalLoop=1;jettySize=auto;html=1;exitX=0.5;exitY=1;exitDx=0;exitDy=0;fontSize=18;" edge="1" parent="1" source="2dIY2J-MviKNpFSsQXsN-8" target="2dIY2J-MviKNpFSsQXsN-2">
          <mxGeometry relative="1" as="geometry" />
        </mxCell>
        <mxCell id="2dIY2J-MviKNpFSsQXsN-8" value="开始" style="shape=hexagon;perimeter=hexagonPerimeter2;whiteSpace=wrap;html=1;fixedSize=1;fontSize=18;" vertex="1" parent="1">
          <mxGeometry x="120" y="130" width="120" height="80" as="geometry" />
        </mxCell>
        <mxCell id="2dIY2J-MviKNpFSsQXsN-9" value="结束" style="shape=hexagon;perimeter=hexagonPerimeter2;whiteSpace=wrap;html=1;fixedSize=1;fontSize=18;" vertex="1" parent="1">
          <mxGeometry x="120" y="590" width="120" height="80" as="geometry" />
        </mxCell>
        <mxCell id="2dIY2J-MviKNpFSsQXsN-10" value="run_backtesting" style="text;html=1;align=center;verticalAlign=middle;whiteSpace=wrap;rounded=0;fontSize=18;" vertex="1" parent="1">
          <mxGeometry x="110" y="70" width="140" height="50" as="geometry" />
        </mxCell>
        <mxCell id="2dIY2J-MviKNpFSsQXsN-16" style="edgeStyle=orthogonalEdgeStyle;rounded=0;orthogonalLoop=1;jettySize=auto;html=1;exitX=0.5;exitY=0;exitDx=0;exitDy=0;" edge="1" parent="1" source="2dIY2J-MviKNpFSsQXsN-12" target="2dIY2J-MviKNpFSsQXsN-6">
          <mxGeometry relative="1" as="geometry" />
        </mxCell>
        <mxCell id="2dIY2J-MviKNpFSsQXsN-12" value="获取下一历史数据" style="rounded=1;whiteSpace=wrap;html=1;fontSize=18;" vertex="1" parent="1">
          <mxGeometry x="310" y="494.5" width="120" height="60" as="geometry" />
        </mxCell>
        <mxCell id="2dIY2J-MviKNpFSsQXsN-15" style="edgeStyle=orthogonalEdgeStyle;rounded=0;orthogonalLoop=1;jettySize=auto;html=1;exitX=1;exitY=0.5;exitDx=0;exitDy=0;" edge="1" parent="1" source="2dIY2J-MviKNpFSsQXsN-14" target="2dIY2J-MviKNpFSsQXsN-12">
          <mxGeometry relative="1" as="geometry" />
        </mxCell>
        <mxCell id="2dIY2J-MviKNpFSsQXsN-18" style="edgeStyle=orthogonalEdgeStyle;rounded=0;orthogonalLoop=1;jettySize=auto;html=1;exitX=0.5;exitY=1;exitDx=0;exitDy=0;" edge="1" parent="1" source="2dIY2J-MviKNpFSsQXsN-14" target="2dIY2J-MviKNpFSsQXsN-9">
          <mxGeometry relative="1" as="geometry" />
        </mxCell>
        <mxCell id="2dIY2J-MviKNpFSsQXsN-14" value="没有数据了" style="rhombus;whiteSpace=wrap;html=1;" vertex="1" parent="1">
          <mxGeometry x="140" y="484.5" width="80" height="80" as="geometry" />
        </mxCell>
      </root>
    </mxGraphModel>
  </diagram>
</mxfile>
